<?xml version="1.0" encoding="UTF-8" standalone="no"?>
<!-- Created with Inkscape (http://www.inkscape.org/) -->

<svg
   width="100mm"
   height="50mm"
   viewBox="0 0 100 50"
   version="1.1"
   id="svg1"
   xml:space="preserve"
   sodipodi:docname="watermark.svg"
   inkscape:version="1.3.2 (091e20e, 2023-11-25, custom)"
   xmlns:inkscape="http://www.inkscape.org/namespaces/inkscape"
   xmlns:sodipodi="http://sodipodi.sourceforge.net/DTD/sodipodi-0.dtd"
   xmlns="http://www.w3.org/2000/svg"
   xmlns:svg="http://www.w3.org/2000/svg"><sodipodi:namedview
     id="namedview1"
     pagecolor="#000000"
     bordercolor="#000000"
     borderopacity="0.25"
     inkscape:showpageshadow="2"
     inkscape:pageopacity="0.0"
     inkscape:pagecheckerboard="0"
     inkscape:deskcolor="#d1d1d1"
     inkscape:document-units="mm"
     inkscape:zoom="1.5875"
     inkscape:cx="337.00787"
     inkscape:cy="234.64567"
     inkscape:window-width="1920"
     inkscape:window-height="1129"
     inkscape:window-x="-8"
     inkscape:window-y="-8"
     inkscape:window-maximized="1"
     inkscape:current-layer="layer1" /><defs
     id="defs1"><style
       id="style1">.cls-1{fill-rule:evenodd;}</style></defs><g
     inkscape:label="Layer 1"
     inkscape:groupmode="layer"
     id="layer1"><text
       xml:space="preserve"
       style="font-size:20.1084px;opacity:0.75;fill:#ffffff;stroke-width:0.377033"
       x="18.439718"
       y="27.627302"
       id="text1"
       transform="scale(0.93262359,1.0722439)"><tspan
         sodipodi:role="line"
         id="tspan1"
         style="font-style:normal;font-variant:normal;font-weight:normal;font-stretch:normal;font-size:20.1084px;font-family:Georgia;-inkscape-font-specification:Georgia;stroke-width:0.377033;fill:#ffffff"
         x="18.439718"
         y="27.627302">Concerto</tspan></text><text
       xml:space="preserve"
       style="font-style:normal;font-variant:normal;font-weight:normal;font-stretch:normal;font-size:6.03253px;font-family:Georgia;-inkscape-font-specification:Georgia;opacity:0.75;fill:#ffffff;stroke-width:0.377033"
       x="40.52734"
       y="35.227333"
       id="text2"
       transform="scale(0.93262359,1.0722439)"><tspan
         sodipodi:role="line"
         id="tspan2"
         style="font-style:normal;font-variant:normal;font-weight:bold;font-stretch:normal;font-size:6.03253px;font-family:sans-serif;-inkscape-font-specification:'sans-serif Bold';stroke-width:0.377033;fill:#ffffff"
         x="40.52734"
         y="35.227333">Collaborative Music</tspan></text><path
       class="cls-1"
       d="M 4.2351728,18.770347 Q 5.5432367,17.06432 6.9392082,15.536174 A 16.073011,18.479255 0 0 1 6.169138,10.684915 C 6.0882734,7.7579885 6.4785718,4.6491401 7.9272891,2.1952117 8.3316641,1.4594368 9.0349226,0.23045169 9.7979605,0.3315199 c 0.6434835,0.0970252 0.9951135,1.1440888 1.2482865,1.7464532 1.730021,4.0427154 2.085167,8.3037389 0.08792,12.9083919 a 16.174983,18.596493 0 0 1 -2.7567812,4.366133 l 0.8368807,4.899771 a 3.0732469,3.5333338 0 0 1 0.3059171,-0.05659 4.9931471,5.7406567 0 0 1 3.0099544,0.570024 c 1.969127,1.212815 3.1928,4.27315 2.995888,6.80389 -0.175815,2.223494 -1.05489,3.759726 -2.514154,5.105952 a 8.4109916,9.6701767 0 0 1 -1.490913,1.123873 l 1.009179,5.910453 a 9.8702566,11.347904 0 0 1 0.0422,1.511974 C 12.449273,48.33878 10.339485,50.13779 7.7268742,50.000336 5.7155506,49.854798 3.6233517,48.019405 3.6128026,45.698887 3.591709,41.199343 8.8872535,41.413607 8.5004612,45.529093 8.3879385,46.741907 7.6178683,47.813226 5.9652075,47.881954 7.2978864,50.420778 11.41899,48.605599 11.700295,45.278444 A 6.1605591,7.0828384 0 0 0 11.457669,42.755789 L 10.694632,38.19156 A 6.2238525,7.1556074 0 0 1 9.6151283,38.462421 8.3371493,9.5852796 0 0 1 3.2330415,36.174243 9.1423822,10.511062 0 0 1 0.42000137,26.334273 C 0.94744705,23.249681 2.4911019,21.054487 4.2351883,18.770352 Z M 7.6846633,14.917638 C 6.9567897,11.873474 7.0657956,8.0126796 8.9399838,5.490024 10.814172,2.9673697 12.881757,6.3955939 10.153107,11.416647 a 17.159548,19.728455 0 0 1 -2.4614101,3.500991 z m 0,5.255531 c -0.2355921,0.270862 -0.4782167,0.541725 -0.7243568,0.808545 -1.4065218,1.556443 -2.8130413,3.04012 -3.8679315,5.255529 a 7.2611612,8.3482086 0 0 0 -0.5274445,6.965601 c 0.843912,3.027993 4.9228217,4.936154 7.9644205,4.018458 L 8.936467,27.672408 a 3.4530074,3.9699471 0 0 0 -2.493057,3.234171 3.0591818,3.5171629 0 0 0 1.0830208,3.157362 5.8862877,6.7675067 0 0 0 0.6364504,0.549811 C 8.5989025,34.945253 8.3844075,35.183773 7.9765168,35.042279 6.6157084,34.516726 5.7999272,33.651584 5.3639047,32.547923 4.0734224,29.281408 5.6557582,25.642963 8.4090225,24.494833 L 7.6846633,20.169126 Z m 3.6815687,16.716632 -1.5964022,-9.37506 a 3.1646708,3.6384444 0 0 1 1.5928852,0.404272 4.2195611,4.8512593 0 0 1 2.327791,3.327155 c 0.421956,2.251794 -0.597771,4.738064 -2.282079,5.635547 l -0.0422,0.02021 z"
       id="path1"
       style="opacity:0.75;stroke-width:0.377033;fill:#ffffff" /></g></svg>
